<!DOCTYPE svg PUBLIC "-//W3C//DTD SVG 1.1//EN" "http://www.w3.org/Graphics/SVG/1.1/DTD/svg11.dtd">
<!-- Uploaded to: SVG Repo, www.svgrepo.com, Transformed by: SVG Repo Mixer Tools -->
<svg fill="#ffffff" height="198px" width="198px" version="1.1" id="Layer_1" xmlns="http://www.w3.org/2000/svg" xmlns:xlink="http://www.w3.org/1999/xlink" viewBox="0 0 512.00 512.00" xml:space="preserve" stroke="#ffffff" stroke-width="0.00512">
<g id="SVGRepo_bgCarrier" stroke-width="0"/>
<g id="SVGRepo_tracerCarrier" stroke-linecap="round" stroke-linejoin="round"/>
<g id="SVGRepo_iconCarrier"> <g> <g> <path d="M373.029,48.879C342.418,17.908,301.597,0.554,258.083,0.013c-44.08-0.553-85.786,16.291-117.402,47.417 c-31.599,31.11-49.079,72.51-49.219,116.575c-0.138,43.229,16.365,84.114,46.464,115.123c23.99,24.714,37.202,56.758,37.202,90.23 v68.005h-0.001c0,22.817,18.563,41.379,41.379,41.379h4.372c0.451,18.414,15.56,33.258,34.083,33.258 c18.522,0,33.631-14.844,34.083-33.259h4.372c22.817,0,41.379-18.563,41.379-41.379v-65.005c0-34.413,13.644-67.213,38.419-92.358 c30.518-30.973,47.324-71.978,47.324-115.46C420.539,120.952,403.667,79.877,373.029,48.879z M254.961,491.602 c-7.274,0-13.243-5.694-13.68-12.86h27.359C268.203,485.907,262.234,491.602,254.961,491.602z M293.415,458.344h-14.55h-47.81 h-14.55c-8.282,0-15.436-4.835-18.847-11.821h89.52c5.632,0,10.199-4.566,10.199-10.199c0-5.633-4.567-10.199-10.199-10.199 h-91.655v-10.782h43.846c5.632,0,10.199-4.566,10.199-10.199c0-5.633-4.567-10.199-10.199-10.199h-43.846v-10.782h118.872v53.2 h0.001C314.396,448.932,304.983,458.344,293.415,458.344z M358.684,265.683c-26.497,26.893-41.949,61.442-44.043,98.082h-48.442 v-91.119h12.161c38.971,0,70.676-31.705,70.676-70.675v-22.36c0-5.633-4.567-10.199-10.199-10.199h-22.36 c-25.608,0-48.078,13.691-60.477,34.138c-12.399-20.446-34.869-34.138-60.477-34.138h-22.36c-5.632,0-10.199,4.566-10.199,10.199 v22.36c0,38.97,31.705,70.675,70.676,70.675H245.8v91.119h-50.381c-1.392-36.765-16.486-71.678-42.858-98.846 c-26.368-27.163-40.822-62.978-40.702-100.849c0.122-38.581,15.441-74.841,43.131-102.103 c27.707-27.278,64.183-42.022,102.839-41.557c78.471,0.975,142.31,65.632,142.31,144.13 C400.141,202.631,385.417,238.551,358.684,265.683z M308.839,208.902c-3.984-3.983-10.44-3.983-14.425,0l-28.113,28.113 c1.593-26.298,23.484-47.207,50.175-47.207h12.161v12.161c0,27.186-21.694,49.387-48.678,50.237l28.88-28.88 C312.822,219.344,312.822,212.886,308.839,208.902z M203.159,223.327l28.88,28.88c-26.984-0.85-48.678-23.05-48.678-50.237 v-12.161h12.161c26.691,0,48.582,20.909,50.175,47.207l-28.113-28.114c-3.984-3.983-10.44-3.983-14.425,0 C199.177,212.885,199.177,219.343,203.159,223.327z"/> </g> </g> <g> <g> <path d="M287.18,394.945h-6.236c-5.632,0-10.199,4.566-10.199,10.199c0,5.633,4.566,10.199,10.199,10.199h6.236 c5.632,0,10.199-4.566,10.199-10.199C297.38,399.511,292.812,394.945,287.18,394.945z"/> </g> </g> </g>
</svg>